<mxfile host="Electron" modified="2024-11-01T02:42:11.285Z" agent="Mozilla/5.0 (Macintosh; Intel Mac OS X 10_15_7) AppleWebKit/537.36 (KHTML, like Gecko) draw.io/21.6.8 Chrome/114.0.5735.289 Electron/25.5.0 Safari/537.36" etag="JvB5IFwC-u0r2ZZQBZoL" version="21.6.8" type="device">
  <diagram name="第 1 页" id="QaYLujmjbEp_c4Hd8Wpe">
    <mxGraphModel dx="1037" dy="894" grid="1" gridSize="10" guides="1" tooltips="1" connect="1" arrows="1" fold="1" page="1" pageScale="1" pageWidth="827" pageHeight="1169" math="0" shadow="0">
      <root>
        <mxCell id="0" />
        <mxCell id="1" parent="0" />
        <mxCell id="MfWJI8jMUpEjQYjtm8w3-1" value="Index" style="triangle;whiteSpace=wrap;html=1;" vertex="1" parent="1">
          <mxGeometry x="10" y="440" width="60" height="80" as="geometry" />
        </mxCell>
        <mxCell id="MfWJI8jMUpEjQYjtm8w3-2" value="" style="rounded=1;whiteSpace=wrap;html=1;" vertex="1" parent="1">
          <mxGeometry x="120" y="240" width="340" height="480" as="geometry" />
        </mxCell>
        <mxCell id="MfWJI8jMUpEjQYjtm8w3-3" value="GraphRAG" style="text;html=1;strokeColor=none;fillColor=none;align=center;verticalAlign=middle;whiteSpace=wrap;rounded=0;" vertex="1" parent="1">
          <mxGeometry x="260" y="180" width="60" height="30" as="geometry" />
        </mxCell>
        <mxCell id="MfWJI8jMUpEjQYjtm8w3-5" value="DataShaper" style="text;html=1;strokeColor=none;fillColor=none;align=center;verticalAlign=middle;whiteSpace=wrap;rounded=0;" vertex="1" parent="1">
          <mxGeometry x="645" y="180" width="60" height="30" as="geometry" />
        </mxCell>
        <mxCell id="MfWJI8jMUpEjQYjtm8w3-10" style="edgeStyle=orthogonalEdgeStyle;rounded=0;orthogonalLoop=1;jettySize=auto;html=1;exitX=0.5;exitY=1;exitDx=0;exitDy=0;entryX=1;entryY=0.5;entryDx=0;entryDy=0;" edge="1" parent="1" source="MfWJI8jMUpEjQYjtm8w3-6" target="MfWJI8jMUpEjQYjtm8w3-9">
          <mxGeometry relative="1" as="geometry" />
        </mxCell>
        <mxCell id="MfWJI8jMUpEjQYjtm8w3-6" value="配置+算子" style="ellipse;whiteSpace=wrap;html=1;aspect=fixed;" vertex="1" parent="1">
          <mxGeometry x="585" y="390" width="180" height="180" as="geometry" />
        </mxCell>
        <mxCell id="MfWJI8jMUpEjQYjtm8w3-7" value="" style="endArrow=classic;html=1;rounded=0;exitX=1;exitY=0.5;exitDx=0;exitDy=0;entryX=0;entryY=0.5;entryDx=0;entryDy=0;" edge="1" parent="1" source="MfWJI8jMUpEjQYjtm8w3-1" target="MfWJI8jMUpEjQYjtm8w3-2">
          <mxGeometry width="50" height="50" relative="1" as="geometry">
            <mxPoint x="390" y="480" as="sourcePoint" />
            <mxPoint x="440" y="430" as="targetPoint" />
          </mxGeometry>
        </mxCell>
        <mxCell id="MfWJI8jMUpEjQYjtm8w3-9" value="Verbs Implementation" style="rounded=1;whiteSpace=wrap;html=1;" vertex="1" parent="1">
          <mxGeometry x="150" y="630" width="280" height="60" as="geometry" />
        </mxCell>
        <mxCell id="MfWJI8jMUpEjQYjtm8w3-13" style="edgeStyle=orthogonalEdgeStyle;rounded=0;orthogonalLoop=1;jettySize=auto;html=1;exitX=0.5;exitY=1;exitDx=0;exitDy=0;entryX=0.5;entryY=0;entryDx=0;entryDy=0;" edge="1" parent="1" source="MfWJI8jMUpEjQYjtm8w3-11" target="MfWJI8jMUpEjQYjtm8w3-24">
          <mxGeometry relative="1" as="geometry" />
        </mxCell>
        <mxCell id="MfWJI8jMUpEjQYjtm8w3-11" value="GraphRAGConfig - settings.yml" style="rounded=1;whiteSpace=wrap;html=1;" vertex="1" parent="1">
          <mxGeometry x="150" y="270" width="280" height="40" as="geometry" />
        </mxCell>
        <mxCell id="MfWJI8jMUpEjQYjtm8w3-12" value="PipelineWorkflowReference" style="rounded=1;whiteSpace=wrap;html=1;" vertex="1" parent="1">
          <mxGeometry x="150" y="380" width="280" height="40" as="geometry" />
        </mxCell>
        <mxCell id="MfWJI8jMUpEjQYjtm8w3-19" style="edgeStyle=orthogonalEdgeStyle;rounded=0;orthogonalLoop=1;jettySize=auto;html=1;exitX=0.5;exitY=1;exitDx=0;exitDy=0;entryX=0.5;entryY=0;entryDx=0;entryDy=0;" edge="1" parent="1" source="MfWJI8jMUpEjQYjtm8w3-14" target="MfWJI8jMUpEjQYjtm8w3-18">
          <mxGeometry relative="1" as="geometry" />
        </mxCell>
        <mxCell id="MfWJI8jMUpEjQYjtm8w3-14" value="Step" style="rounded=1;whiteSpace=wrap;html=1;" vertex="1" parent="1">
          <mxGeometry x="190" y="440" width="200" height="20" as="geometry" />
        </mxCell>
        <mxCell id="MfWJI8jMUpEjQYjtm8w3-17" value="" style="endArrow=classic;html=1;rounded=0;exitX=0.5;exitY=1;exitDx=0;exitDy=0;" edge="1" parent="1" source="MfWJI8jMUpEjQYjtm8w3-12" target="MfWJI8jMUpEjQYjtm8w3-14">
          <mxGeometry width="50" height="50" relative="1" as="geometry">
            <mxPoint x="390" y="510" as="sourcePoint" />
            <mxPoint x="440" y="460" as="targetPoint" />
          </mxGeometry>
        </mxCell>
        <mxCell id="MfWJI8jMUpEjQYjtm8w3-22" style="edgeStyle=orthogonalEdgeStyle;rounded=0;orthogonalLoop=1;jettySize=auto;html=1;exitX=0.5;exitY=1;exitDx=0;exitDy=0;entryX=0.5;entryY=0;entryDx=0;entryDy=0;" edge="1" parent="1" source="MfWJI8jMUpEjQYjtm8w3-18" target="MfWJI8jMUpEjQYjtm8w3-21">
          <mxGeometry relative="1" as="geometry" />
        </mxCell>
        <mxCell id="MfWJI8jMUpEjQYjtm8w3-18" value="&lt;div style=&quot;text-align: left;&quot;&gt;&lt;span style=&quot;background-color: initial;&quot;&gt;Verb: name&lt;/span&gt;&lt;/div&gt;&lt;div style=&quot;text-align: left;&quot;&gt;&lt;span style=&quot;background-color: initial;&quot;&gt;Source: Dependencies&lt;/span&gt;&lt;/div&gt;&lt;div style=&quot;text-align: left;&quot;&gt;&lt;span style=&quot;background-color: initial;&quot;&gt;Config: optional prompts&lt;/span&gt;&lt;/div&gt;" style="rounded=1;whiteSpace=wrap;html=1;" vertex="1" parent="1">
          <mxGeometry x="190" y="480" width="200" height="60" as="geometry" />
        </mxCell>
        <mxCell id="MfWJI8jMUpEjQYjtm8w3-23" style="edgeStyle=orthogonalEdgeStyle;rounded=0;orthogonalLoop=1;jettySize=auto;html=1;exitX=1;exitY=0.5;exitDx=0;exitDy=0;entryX=0;entryY=0.5;entryDx=0;entryDy=0;" edge="1" parent="1" source="MfWJI8jMUpEjQYjtm8w3-21" target="MfWJI8jMUpEjQYjtm8w3-6">
          <mxGeometry relative="1" as="geometry" />
        </mxCell>
        <mxCell id="MfWJI8jMUpEjQYjtm8w3-21" value="Async Tasks Run" style="rounded=1;whiteSpace=wrap;html=1;" vertex="1" parent="1">
          <mxGeometry x="150" y="575" width="280" height="40" as="geometry" />
        </mxCell>
        <mxCell id="MfWJI8jMUpEjQYjtm8w3-25" style="edgeStyle=orthogonalEdgeStyle;rounded=0;orthogonalLoop=1;jettySize=auto;html=1;exitX=0.5;exitY=1;exitDx=0;exitDy=0;entryX=0.5;entryY=0;entryDx=0;entryDy=0;" edge="1" parent="1" source="MfWJI8jMUpEjQYjtm8w3-24" target="MfWJI8jMUpEjQYjtm8w3-12">
          <mxGeometry relative="1" as="geometry" />
        </mxCell>
        <mxCell id="MfWJI8jMUpEjQYjtm8w3-24" value="PipelineConfig&amp;nbsp; (DryRun)" style="rounded=1;whiteSpace=wrap;html=1;" vertex="1" parent="1">
          <mxGeometry x="150" y="324" width="280" height="40" as="geometry" />
        </mxCell>
      </root>
    </mxGraphModel>
  </diagram>
</mxfile>
